<?xml version="1.0" encoding="iso-8859-1"?>
<!-- Generator: Adobe Illustrator 19.0.0, SVG Export Plug-In . SVG Version: 6.00 Build 0)  -->
<svg version="1.1" id="Capa_1" xmlns="http://www.w3.org/2000/svg" xmlns:xlink="http://www.w3.org/1999/xlink" x="0px" y="0px"
	 viewBox="0 0 511.999 511.999" style="enable-background:new 0 0 511.999 511.999;" xml:space="preserve">
<path style="fill:#FFB655;" d="M284.476,266.063C267.939,260.599,256,245.028,256,226.659c0,22.919-18.58,41.5-41.5,41.5h-34.693
	l-39.702,83.744h90.937l-62.695,132.244l204.57-161.326H255.998L284.476,266.063z"/>
<rect x="203.956" y="300.197" style="fill:#EE8700;" width="27.805" height="27.805"/>
<rect x="187.116" y="300.197" style="fill:#57A4FF;" width="27.805" height="27.805"/>
<g>
	<path style="fill:#FF3F62;" d="M161.425,37.265c-1.821,3.585-3.443,7.288-4.851,11.093c-6.231-3.598-13.454-5.667-21.165-5.667
		c-23.417,0-42.401,18.983-42.401,42.4c0,0.066,0.005,0.132,0.005,0.198c-47.78,3.067-85.584,42.783-85.584,91.336l0,0
		c0,50.553,40.981,91.534,91.534,91.534h115.538c22.919,0,41.5-18.58,41.5-41.5V59.875C256.001,7.281,185.242-9.628,161.425,37.265z
		"/>
	<path style="fill:#FF3F62;" d="M350.577,37.265c1.821,3.585,3.443,7.288,4.851,11.093c6.231-3.598,13.454-5.667,21.165-5.667
		c23.417,0,42.401,18.983,42.401,42.4c0,0.066-0.005,0.132-0.005,0.198c47.779,3.067,85.583,42.783,85.583,91.336l0,0
		c0,50.553-40.981,91.534-91.534,91.534H297.501c-22.92,0-41.5-18.58-41.5-41.5V59.875C256.001,7.281,326.76-9.628,350.577,37.265z"
		/>
</g>
<g>
	<polygon style="fill:#EE8700;" points="260.759,351.903 231.042,351.903 168.348,484.148 215.809,446.719 	"/>
	<path style="fill:#EE8700;" d="M270.866,258.466c-9.083-7.609-14.864-19.029-14.864-31.807c0,22.919-18.58,41.5-41.5,41.5h29.717
		C254.364,268.16,263.656,264.513,270.866,258.466z"/>
	<polygon style="fill:#EE8700;" points="209.524,268.16 179.807,268.16 140.105,351.903 169.822,351.903 	"/>
</g>
<rect x="187.116" y="300.197" style="fill:#006DF0;" width="16.839" height="27.805"/>
<g>
	<path style="fill:#A5001E;" d="M165.125,42.691c7.712,0,14.936,2.069,21.165,5.667c1.409-3.806,3.03-7.508,4.851-11.093
		c6.826-13.44,17.511-21.63,29.278-25.249c-21.287-6.328-46.548,0.746-58.995,25.249c-0.985,1.938-1.905,3.913-2.771,5.918
		C160.763,42.859,162.925,42.691,165.125,42.691z"/>
	<path style="fill:#A5001E;" d="M37.146,176.626L37.146,176.626c0-48.553,37.805-88.27,85.583-91.337
		c0-0.066-0.005-0.132-0.005-0.197c0-18.176,11.439-33.674,27.509-39.704c-4.617-1.729-9.604-2.696-14.825-2.696
		c-23.417,0-42.401,18.983-42.401,42.4c0,0.066,0.005,0.132,0.005,0.197c-47.779,3.067-85.583,42.783-85.583,91.336l0,0
		c0,50.553,40.981,91.534,91.534,91.534h29.717C78.127,268.16,37.146,227.178,37.146,176.626z"/>
	<path style="fill:#A5001E;" d="M383.065,43.182c0.736,1.704,1.433,3.427,2.08,5.176c2.013-1.162,4.139-2.146,6.341-2.971
		C388.797,44.378,385.981,43.629,383.065,43.182z"/>
	<path style="fill:#A5001E;" d="M285.717,226.659V59.875c0-25.111,16.132-42.078,35.582-47.86
		c-29.29-9.01-65.298,10.339-65.298,47.86V226.66c0,22.92,18.58,41.5,41.5,41.5h29.717
		C304.298,268.16,285.717,249.58,285.717,226.659z"/>
</g>
<g>
	<rect x="251.047" y="338.859" style="fill:#1D1D1F;" width="14.857" height="14.858"/>
	<rect x="275.811" y="338.859" style="fill:#1D1D1F;" width="14.858" height="14.858"/>
	<rect x="300.575" y="338.859" style="fill:#1D1D1F;" width="14.858" height="14.858"/>
	<path style="fill:#1D1D1F;" d="M179.684,335.43h42.661v-42.66h-42.661V335.43z M194.542,307.628h12.945v12.944h-12.945V307.628z"/>
	<path style="fill:#1D1D1F;" d="M425.99,78.51c-3.23-24.377-24.151-43.248-49.397-43.248c-5.906,0-11.753,1.053-17.256,3.086
		c-0.681-1.501-1.394-2.986-2.137-4.449C347.177,14.166,328.25,2.386,306.571,2.386c-14.651,0-29.156,5.536-39.795,15.188
		c-4.332,3.931-7.94,8.46-10.776,13.442c-2.836-4.982-6.444-9.511-10.776-13.442C234.585,7.923,220.08,2.386,205.43,2.386
		c-21.682,0-40.609,11.781-50.628,31.513c-0.743,1.463-1.456,2.948-2.138,4.449c-5.503-2.032-11.35-3.086-17.255-3.086
		c-25.245,0-46.166,18.871-49.397,43.248C37.278,84.891,0,126.782,0,176.624c0,54.57,44.394,98.965,98.963,98.965h69.1
		l-39.701,83.744h90.937l-71.246,150.28l154.699-121.997l-9.2-11.667l-104.909,82.732l54.144-114.207H151.85l32.657-68.885h26.914
		V260.73h-3.423c4.378-8.774,3.653-19.165-1.975-27.28L100.501,83.027c1.072-18.326,16.316-32.907,34.907-32.907
		c5.593,0,11.104,1.361,16.051,3.923l45.906,67.286l12.274-8.374l-44.709-65.531c0.956-2.304,1.994-4.58,3.119-6.795
		c7.546-14.861,21.171-23.383,37.381-23.383c20.914,0,43.142,14.941,43.142,42.631v44.173l-41.38-61.91l-12.353,8.256l53.733,80.392
		v38.462l-16.942-24.487l-12.219,8.453l20.901,30.207c3.114,4.502,2.15,10.636-2.194,13.966c-2.24,1.716-5.008,2.424-7.8,1.994
		c-2.788-0.432-5.215-1.943-6.832-4.256L132.989,65.668l-12.178,8.514l90.497,129.457c3.962,5.667,9.907,9.37,16.739,10.426
		c1.309,0.202,2.614,0.303,3.91,0.303c5.473-0.001,10.759-1.785,15.197-5.186c0.492-0.377,0.961-0.774,1.417-1.18v18.657
		c-0.001,15.06-10.088,28.514-24.528,32.718l4.152,14.265c11.785-3.43,21.547-11.151,27.784-21.141
		c4.506,7.215,10.833,13.18,18.34,17.237l-30.362,60.513h107.54l-46.281,36.497l9.2,11.667l79.917-63.022H268.037l20.4-40.658
		c2.94,0.553,5.966,0.856,9.065,0.856h115.543c2.44-0.003,4.891-0.092,7.29-0.267l-1.079-14.819
		c-2.045,0.149-4.139,0.226-6.218,0.227h-6.789l46.636-67.754c8.285-12.039,5.896-28.695-5.439-37.921
		c-6-4.88-13.843-7.103-21.502-6.095c-7.667,1.006-14.665,5.177-19.2,11.439l-20.043,27.681l12.034,8.715l20.043-27.682
		c2.18-3.011,5.412-4.936,9.099-5.421c3.688-0.478,7.305,0.542,10.19,2.888c5.373,4.372,6.504,12.266,2.578,17.972l-52.435,76.179
		h-35.767l27.944-38.593l-12.034-8.715L337.669,255.8c-2.243,3.087-5.86,4.931-9.678,4.931c-4.533,0-8.494-2.398-10.596-6.415
		c-2.102-4.018-1.815-8.64,0.747-12.332L422.607,93.066c42.116,4.773,74.533,40.71,74.533,83.558
		c0,39.065-26.489,72.697-64.418,81.789l3.464,14.449c21.248-5.094,40.503-17.354,54.213-34.52
		c13.929-17.438,21.599-39.356,21.599-61.72C512,126.782,474.723,84.891,425.99,78.51z M194.605,254.315
		c-2.103,4.018-6.064,6.416-10.597,6.416c-3.817,0-7.433-1.843-9.67-4.921l-13.442-18.565l-12.035,8.713l10.696,14.773H123.79
		l-52.435-76.179c-3.927-5.706-2.794-13.599,2.577-17.971c2.885-2.348,6.508-3.371,10.19-2.889c3.687,0.483,6.918,2.41,9.099,5.422
		l44.821,61.902l12.035-8.715l-44.821-61.902c-4.536-6.262-11.534-10.433-19.2-11.439c-7.662-1.006-15.503,1.215-21.503,6.096
		c-11.336,9.225-13.724,25.881-5.438,37.92l46.636,67.754h-6.789c-46.376,0-84.104-37.73-84.104-84.106
		c0-42.849,32.418-78.785,74.534-83.558L193.836,241.95C196.42,245.677,196.708,250.299,194.605,254.315z M305.955,233.482
		c-5.607,8.083-6.331,18.474-1.952,27.248H297.5c-18.787,0-34.071-15.285-34.071-34.071v-18.658c0.457,0.406,0.925,0.802,1.418,1.18
		c4.438,3.401,9.723,5.185,15.197,5.185c1.297,0,2.602-0.101,3.91-0.303c6.833-1.056,12.777-4.76,16.739-10.426L391.191,74.18
		l-12.178-8.514l-90.497,129.457c-1.618,2.313-4.043,3.825-6.832,4.256c-2.786,0.431-5.559-0.276-7.799-1.993
		c-4.346-3.33-5.308-9.465-2.195-13.967l20.901-30.207l-12.219-8.453l-16.942,24.488v-38.461l53.734-80.393l-12.354-8.256
		l-41.38,61.91V59.874c0-27.69,22.227-42.631,43.142-42.631c16.207,0,29.834,8.523,37.382,23.383
		c1.125,2.216,2.163,4.492,3.119,6.794l-44.71,65.53l12.275,8.374l45.906-67.285c4.946-2.562,10.457-3.923,16.05-3.923
		c18.591,0,33.835,14.581,34.907,32.907L305.955,233.482z"/>
</g>
<g>
	<path style="fill:#FFFFFF;" d="M25.796,172.137l14.838,0.783c1.206-22.838,15.902-42.595,37.443-50.334l-5.024-13.983
		C45.867,118.37,27.318,143.309,25.796,172.137z"/>
	<path style="fill:#FFFFFF;" d="M40.837,181.679l-14.784,1.481c0.552,5.51,1.744,10.948,3.544,16.162l14.045-4.848
		C42.218,190.348,41.274,186.042,40.837,181.679z"/>
	<path style="fill:#FFFFFF;" d="M34,209.451c2.584,4.874,5.741,9.456,9.386,13.62l11.182-9.785
		c-2.889-3.303-5.393-6.935-7.44-10.795L34,209.451z"/>
	<path style="fill:#FFFFFF;" d="M467.625,223.07c3.642-4.163,6.798-8.745,9.384-13.619l-13.128-6.96
		c-2.047,3.862-4.551,7.495-7.439,10.796L467.625,223.07z"/>
	<path style="fill:#FFFFFF;" d="M437.958,108.603l-5.025,13.983c21.54,7.74,36.237,27.498,37.442,50.334l14.838-0.783
		C483.69,143.31,465.142,118.372,437.958,108.603z"/>
	<path style="fill:#FFFFFF;" d="M467.366,194.475l14.045,4.848c1.802-5.22,2.992-10.659,3.542-16.166l-14.786-1.473
		C469.733,186.041,468.791,190.345,467.366,194.475z"/>
</g>
<g>
</g>
<g>
</g>
<g>
</g>
<g>
</g>
<g>
</g>
<g>
</g>
<g>
</g>
<g>
</g>
<g>
</g>
<g>
</g>
<g>
</g>
<g>
</g>
<g>
</g>
<g>
</g>
<g>
</g>
</svg>
