<svg id="Capa_1" enable-background="new 0 0 512 512" height="512" viewBox="0 0 512 512" width="512" xmlns="http://www.w3.org/2000/svg"><g><path d="m505 472.474h-498c-3.866 0-7-3.134-7-7v-389.717l10-19.231c0-3.866 3.134-7 7-7h478c3.866 0 7 3.134 7 7l10 53.573v355.375c0 3.866-3.134 7-7 7z" fill="#618baa"/><path d="m20 465.47v-389.71-7.093h-16.311l-3.689 7.093v389.71c0 3.87 3.13 7 7 7h20c-3.87 0-7-3.13-7-7z" fill="#456b93"/><path d="m0 75.757h335.883c2.242 0 4.348 1.073 5.664 2.887l20.741 28.567c1.317 1.814 3.423 2.887 5.664 2.887h144.048v-63.572c0-3.866-3.134-7-7-7h-498c-3.866 0-7 3.134-7 7z" fill="#456b93"/><path d="m7 39.53h20c-3.87 0-7 3.13-7 7v29.23h-20v-29.23c0-3.87 3.13-7 7-7z" fill="#3b4f66"/><path d="m387.95 110.1h-20c-2.24 0-4.34-1.07-5.66-2.89l-20.74-28.57c-1.32-1.81-3.42-2.88-5.67-2.88h20c2.25 0 4.35 1.07 5.67 2.88l20.74 28.57c1.32 1.82 3.42 2.89 5.66 2.89z" fill="#3b4f66"/><path d="m477.51 316.67v-199.57c0-3.866-3.134-7-7-7h-429.02c-3.866 0-7 3.134-7 7v199.57 15.45 99.12c0 3.866 3.134 7 7 7h429.02c3.866 0 7-3.134 7-7v-99.12z" fill="#d9ecfd"/><g><g><path d="m394.056 82.454h-15.11c-4.267 0-7.727-3.459-7.727-7.727s3.46-7.727 7.727-7.727h15.11c4.267 0 7.727 3.459 7.727 7.727s-3.46 7.727-7.727 7.727z" fill="#d9ecfd"/></g></g><g><g><path d="m437.327 82.454h-15.11c-4.267 0-7.727-3.459-7.727-7.727s3.46-7.727 7.727-7.727h15.11c4.267 0 7.727 3.459 7.727 7.727s-3.459 7.727-7.727 7.727z" fill="#d9ecfd"/></g></g><g><g><path d="m480.598 82.454h-15.11c-4.267 0-7.727-3.459-7.727-7.727s3.46-7.727 7.727-7.727h15.11c4.267 0 7.727 3.459 7.727 7.727s-3.459 7.727-7.727 7.727z" fill="#d9ecfd"/></g></g><path d="m281.141 184.454-50.281-29.03c-4.667-2.694-10.5.674-10.5 6.062v58.06c0 5.389 5.833 8.756 10.5 6.062l50.281-29.03c4.666-2.694 4.666-9.43 0-12.124z" fill="#fc5a36"/><g><g><path d="m418.782 280.608h-325.564c-4.267 0-7.727-3.459-7.727-7.727s3.46-7.727 7.727-7.727h325.565c4.267 0 7.727 3.459 7.727 7.727-.001 4.268-3.46 7.727-7.728 7.727z" fill="#456b93"/></g></g><circle cx="361.602" cy="271.679" fill="#fc5a36" r="17.343"/><g><g><path d="m34.49 316.67h443.02v15.45h-443.02z" fill="#456b93"/></g></g><g><g><g><path d="m236.167 371.959h-154.111c-4.267 0-7.727-3.459-7.727-7.727s3.46-7.727 7.727-7.727h154.111c4.267 0 7.727 3.459 7.727 7.727s-3.459 7.727-7.727 7.727z" fill="#456b93"/></g><g><path d="m236.167 407.674h-154.111c-4.267 0-7.727-3.459-7.727-7.727s3.46-7.727 7.727-7.727h154.111c4.267 0 7.727 3.459 7.727 7.727s-3.459 7.727-7.727 7.727z" fill="#456b93"/></g><g><path d="m429.944 371.959h-154.111c-4.267 0-7.727-3.459-7.727-7.727s3.46-7.727 7.727-7.727h154.111c4.267 0 7.727 3.459 7.727 7.727s-3.46 7.727-7.727 7.727z" fill="#456b93"/></g><g><path d="m429.944 407.674h-154.111c-4.267 0-7.727-3.459-7.727-7.727s3.46-7.727 7.727-7.727h154.111c4.267 0 7.727 3.459 7.727 7.727s-3.46 7.727-7.727 7.727z" fill="#456b93"/></g></g></g></g></svg>