<?xml version="1.0" encoding="iso-8859-1"?>
<!-- Generator: Adobe Illustrator 19.0.0, SVG Export Plug-In . SVG Version: 6.00 Build 0)  -->
<svg version="1.1" id="Capa_1" xmlns="http://www.w3.org/2000/svg" xmlns:xlink="http://www.w3.org/1999/xlink" x="0px" y="0px"
	 viewBox="0 0 512 512" style="enable-background:new 0 0 512 512;" xml:space="preserve">
<path style="fill:#57A4FF;" d="M256.001,504.382L256.001,504.382c-63.847,0-115.603-51.758-115.603-115.603V146.014h231.208v242.764
	C371.604,452.624,319.847,504.382,256.001,504.382z"/>
<g>
	<rect x="252.952" y="175.492" style="fill:#006DF0;" width="44.698" height="90.291"/>
	<rect x="183.812" y="176.163" style="fill:#006DF0;" width="44.286" height="44.286"/>
	<rect x="322.499" y="176.163" style="fill:#006DF0;" width="44.286" height="44.286"/>
</g>
<rect x="233.651" y="175.492" style="fill:#FF3F62;" width="44.698" height="90.291"/>
<g>
	<rect x="164.51" y="176.163" style="fill:#FFB655;" width="44.286" height="44.286"/>
	<rect x="303.197" y="176.163" style="fill:#FFB655;" width="44.286" height="44.286"/>
</g>
<polygon style="fill:#FF3F62;" points="283.429,146.014 228.571,146.014 243.533,123.43 268.468,123.43 "/>
<path style="fill:#006DF0;" d="M170.873,388.779V146.016h-30.476v242.763c0,63.846,51.758,115.603,115.603,115.603l0,0
	c5.166,0,10.251-0.344,15.238-1.001C214.595,495.922,170.873,447.459,170.873,388.779z"/>
<rect x="233.651" y="175.492" style="fill:#A5001E;" width="19.302" height="90.291"/>
<g>
	<rect x="164.51" y="176.163" style="fill:#EE8700;" width="19.302" height="44.286"/>
	<rect x="303.197" y="176.163" style="fill:#EE8700;" width="19.302" height="44.286"/>
</g>
<polygon style="fill:#A5001E;" points="243.533,123.43 228.571,146.014 247.873,146.014 262.835,123.43 "/>
<g>
	<path style="fill:#1D1D1F;" d="M287.521,138.393l-14.961-22.583h-8.94v-7.619h-15.238v7.619h-8.941l-14.961,22.583h-36.13v15.238
		h60.027v14.236h-22.346v105.526h22.346v51.803h15.238v-51.803h22.352V167.868h-22.352v-14.236h100.368v235.146
		c0,9.751-1.299,19.413-3.86,28.72l14.692,4.044c2.924-10.623,4.407-21.647,4.407-32.764V138.393H287.521z M270.73,258.156h-29.46
		v-75.05h29.46V258.156z M247.624,131.049h16.751l4.866,7.345h-26.483L247.624,131.049z"/>
	<path style="fill:#1D1D1F;" d="M256,496.762c-59.543,0-107.984-48.442-107.984-107.984V153.632h25.097v-15.238h-40.335v250.384
		C132.778,456.723,188.055,512,256,512c49.566-0.002,94.108-29.487,113.476-75.117l-14.027-5.953
		C338.476,470.92,299.44,496.761,256,496.762z"/>
</g>
<g>
	<rect x="334.73" y="337.818" style="fill:#FFFFFF;" width="15.238" height="15.238"/>
	<rect x="334.73" y="312.422" style="fill:#FFFFFF;" width="15.238" height="15.237"/>
	<path style="fill:#FFFFFF;" d="M274.93,475.922c43.48-8.899,75.038-47.615,75.038-92.06v-20.648H334.73v20.648
		c0,37.239-26.435,69.678-62.856,77.131L274.93,475.922z"/>
</g>
<g>
	<polygon style="fill:#1D1D1F;" points="177.27,383.909 177.27,282.037 162.032,281.986 162.032,383.858 	"/>
	<path style="fill:#1D1D1F;" d="M216.411,168.544h-59.52v59.52h59.52V168.544z M201.173,212.825h-29.054v-29.054h29.054V212.825z"/>
	<path style="fill:#1D1D1F;" d="M355.109,168.533h-59.53v59.53h59.53V168.533z M339.87,212.825h-29.054v-29.054h29.054V212.825z"/>
	<rect x="248.381" y="213.841" style="fill:#1D1D1F;" width="15.238" height="15.238"/>
	<rect x="248.381" y="188.444" style="fill:#1D1D1F;" width="15.238" height="15.238"/>
	<rect x="248.381" y="239.238" style="fill:#1D1D1F;" width="15.238" height="13.206"/>
	<polygon style="fill:#1D1D1F;" points="263.619,50.286 332.964,50.286 332.964,0 317.725,0 317.725,35.048 248.381,35.048 
		248.381,72.636 263.619,72.636 	"/>
	<rect x="248.381" y="82.794" style="fill:#1D1D1F;" width="15.238" height="15.238"/>
</g>
<g>
</g>
<g>
</g>
<g>
</g>
<g>
</g>
<g>
</g>
<g>
</g>
<g>
</g>
<g>
</g>
<g>
</g>
<g>
</g>
<g>
</g>
<g>
</g>
<g>
</g>
<g>
</g>
<g>
</g>
</svg>
