<?xml version="1.0" encoding="iso-8859-1"?>
<!-- Generator: Adobe Illustrator 19.0.0, SVG Export Plug-In . SVG Version: 6.00 Build 0)  -->
<svg version="1.1" id="Capa_1" xmlns="http://www.w3.org/2000/svg" xmlns:xlink="http://www.w3.org/1999/xlink" x="0px" y="0px"
	 viewBox="0 0 512 512" style="enable-background:new 0 0 512 512;" xml:space="preserve">
<circle style="fill:#57A4FF;" cx="256" cy="102.25" r="94.75"/>
<g>
	<rect x="208.79" y="85.36" style="fill:#006DF0;" width="31.781" height="31.781"/>
	<rect x="261.43" y="85.36" style="fill:#006DF0;" width="31.781" height="31.781"/>
</g>
<g>
	<circle style="fill:#57A4FF;" cx="121.5" cy="92.25" r="17.5"/>
	<circle style="fill:#57A4FF;" cx="84.25" cy="125.91" r="13.618"/>
	<circle style="fill:#57A4FF;" cx="390.5" cy="92.25" r="17.5"/>
	<circle style="fill:#57A4FF;" cx="427.75" cy="125.91" r="13.618"/>
</g>
<polygon style="fill:#C6C5CA;" points="504.501,504.501 316.301,504.501 316.301,361.405 369.512,311.853 451.29,311.853 
	504.501,361.405 "/>
<rect x="411.51" y="311.85" style="fill:#898890;" width="31.781" height="31.781"/>
<g>
	<rect x="191.79" y="85.36" style="fill:#FFB655;" width="31.781" height="31.781"/>
	<rect x="244.43" y="85.36" style="fill:#FFB655;" width="31.781" height="31.781"/>
</g>
<rect x="394.51" y="311.85" style="fill:#FF3F62;" width="31.781" height="31.781"/>
<polygon style="fill:#C6C5CA;" points="195.7,504.501 7.501,504.501 7.501,361.405 60.711,311.853 142.49,311.853 195.7,361.405 "/>
<g>
	<polygon style="fill:#898890;" points="416.331,343.634 438.472,343.634 449.542,460.447 438.472,479.622 416.331,479.622 
		405.26,460.447 	"/>
	<rect x="161.48" y="418.1" style="fill:#898890;" width="29.04" height="29.04"/>
	<rect x="108.65" y="418.1" style="fill:#898890;" width="29.04" height="29.04"/>
</g>
<g>
	<circle style="fill:#FFB655;" cx="101.6" cy="237.52" r="74.33"/>
	<circle style="fill:#FFB655;" cx="410.4" cy="237.52" r="74.33"/>
</g>
<polygon style="fill:#FF3F62;" points="399.331,343.634 421.472,343.634 432.542,460.447 421.472,479.622 399.331,479.622 
	388.26,460.447 "/>
<g>
	<rect x="144.48" y="418.1" style="fill:#57A4FF;" width="29.04" height="29.04"/>
	<rect x="91.65" y="418.1" style="fill:#57A4FF;" width="29.04" height="29.04"/>
</g>
<g>
	<path style="fill:#006DF0;" d="M191.251,102.251c0-47.224,34.55-86.374,79.75-93.564c-4.886-0.777-9.895-1.186-15-1.186
		c-52.329,0-94.75,42.421-94.75,94.75s42.421,94.75,94.75,94.75c5.105,0,10.114-0.409,15-1.186
		C225.8,188.625,191.251,149.475,191.251,102.251z"/>
	<path style="fill:#006DF0;" d="M116.999,92.251c0-7.366,4.557-13.657,11-16.239c-2.011-0.806-4.201-1.261-6.5-1.261
		c-9.665,0-17.5,7.835-17.5,17.5s7.835,17.5,17.5,17.5c2.299,0,4.489-0.455,6.5-1.261
		C121.556,105.908,116.999,99.617,116.999,92.251z"/>
	<path style="fill:#006DF0;" d="M83.631,125.905c0-5.167,2.878-9.661,7.118-11.969c-1.932-1.051-4.146-1.649-6.5-1.649
		c-7.521,0-13.618,6.097-13.618,13.618c0,7.521,6.097,13.618,13.618,13.618c2.354,0,4.568-0.598,6.5-1.649
		C86.509,135.566,83.631,131.072,83.631,125.905z"/>
	<path style="fill:#006DF0;" d="M386.002,92.251c0-7.366,4.557-13.657,11-16.239c-2.011-0.806-4.201-1.261-6.5-1.261
		c-9.665,0-17.5,7.835-17.5,17.5s7.835,17.5,17.5,17.5c2.299,0,4.489-0.455,6.5-1.261
		C390.559,105.908,386.002,99.617,386.002,92.251z"/>
	<path style="fill:#006DF0;" d="M427.135,125.905c0-5.167,2.878-9.661,7.118-11.969c-1.932-1.051-4.146-1.649-6.5-1.649
		c-7.521,0-13.618,6.097-13.618,13.618c0,7.521,6.097,13.618,13.618,13.618c2.354,0,4.568-0.598,6.5-1.649
		C430.013,135.566,427.135,131.072,427.135,125.905z"/>
</g>
<polygon style="fill:#898890;" points="399.512,311.853 369.512,311.853 316.301,361.405 316.301,504.501 346.301,504.501 
	346.301,361.405 "/>
<g>
	<rect x="191.79" y="85.36" style="fill:#EE8700;" width="17" height="31.781"/>
	<rect x="244.43" y="85.36" style="fill:#EE8700;" width="17" height="31.781"/>
</g>
<rect x="394.51" y="311.85" style="fill:#A5001E;" width="17" height="31.781"/>
<polygon style="fill:#898890;" points="90.711,311.853 60.711,311.853 7.501,361.405 7.501,504.501 37.501,504.501 37.501,361.405 
	"/>
<g>
	<path style="fill:#EE8700;" d="M57.272,237.524c0-35.912,25.469-65.875,59.329-72.814c-4.845-0.993-9.861-1.515-15-1.515
		c-41.051,0-74.329,33.278-74.329,74.329s33.278,74.329,74.329,74.329c5.139,0,10.155-0.522,15-1.515
		C82.74,303.4,57.272,273.436,57.272,237.524z"/>
	<path style="fill:#EE8700;" d="M366.072,237.524c0-35.912,25.469-65.875,59.329-72.814c-4.845-0.993-9.861-1.515-15-1.515
		c-41.051,0-74.329,33.278-74.329,74.329s33.278,74.329,74.329,74.329c5.139,0,10.155-0.522,15-1.515
		C391.541,303.4,366.072,273.436,366.072,237.524z"/>
</g>
<polygon style="fill:#A5001E;" points="416.331,343.634 399.331,343.634 388.26,460.447 399.331,479.622 416.331,479.622 
	405.26,460.447 "/>
<g>
	<rect x="144.48" y="418.1" style="fill:#57A4FF;" width="17" height="29.04"/>
	<rect x="91.65" y="418.1" style="fill:#57A4FF;" width="17" height="29.04"/>
</g>
<g>
	<rect x="140.19" y="376.81" style="fill:#1D1D1F;" width="15" height="15"/>
	<rect x="115.19" y="376.81" style="fill:#1D1D1F;" width="14.999" height="15"/>
	<rect x="165.19" y="376.81" style="fill:#1D1D1F;" width="15" height="15"/>
	<rect x="245.86" y="137.83" style="fill:#1D1D1F;" width="15" height="15"/>
	<rect x="220.86" y="137.83" style="fill:#1D1D1F;" width="15" height="15"/>
	<rect x="195.86" y="137.83" style="fill:#1D1D1F;" width="14.999" height="15"/>
	<path style="fill:#1D1D1F;" d="M231.071,77.86h-46.78v46.78h46.78V77.86z M216.071,109.641h-16.78V92.86h16.78V109.641z"/>
	<path style="fill:#1D1D1F;" d="M283.71,77.911l-46.79-0.05v46.73l46.79,0.05V77.911z M268.71,109.641h-16.79V92.86h16.79V109.641z"
		/>
	<path style="fill:#1D1D1F;" d="M158.759,337.251l29.441,27.417V497H15V364.669l48.662-45.316h75.875l8.244,7.676l10.222-10.977
		l-11.157-10.39c22.031-14.678,36.582-39.737,36.582-68.138c0-45.121-36.708-81.829-81.829-81.829s-81.83,36.708-81.83,81.829
		c0,28.401,14.551,53.46,36.583,68.138L0,358.141V512h203.2V358.141l-34.219-31.867L158.759,337.251z M34.771,237.524
		c0-36.85,29.979-66.829,66.83-66.829c36.849,0,66.829,29.979,66.829,66.829c0,36.849-29.979,66.829-66.829,66.829
		C64.75,304.353,34.771,274.373,34.771,237.524z"/>
	<path style="fill:#1D1D1F;" d="M358.25,102.25c-0.001-29.395-12.671-57.393-34.761-76.815L313.584,36.7
		c18.852,16.576,29.665,40.468,29.666,65.551c0,48.109-39.141,87.25-87.25,87.25c-48.11,0-87.25-39.141-87.25-87.25
		C168.751,54.141,207.89,15,256,15c16.536,0,32.627,4.645,46.534,13.431l8.012-12.681C294.239,5.446,275.377,0,256,0
		c-56.381,0-102.25,45.87-102.25,102.251c0,56.38,45.869,102.25,102.25,102.25S358.25,158.631,358.25,102.25z"/>
</g>
<g>
	<path style="fill:#FFFFFF;" d="M324.721,124.607c2.341-7.2,3.527-14.722,3.527-22.357c-0.001-19.662-7.76-38.045-21.847-51.764
		l-10.465,10.747c11.163,10.871,17.312,25.438,17.313,41.019c0,6.057-0.939,12.019-2.792,17.719L324.721,124.607z"/>
	<path style="fill:#FFFFFF;" d="M297.846,43.348c-4.552-3.239-9.476-5.946-14.635-8.044l-5.653,13.894
		c4.084,1.662,7.985,3.806,11.592,6.373L297.846,43.348z"/>
	<path style="fill:#FFFFFF;" d="M256,30.002v15c4.444,0,8.867,0.509,13.147,1.515l3.429-14.603
		C267.174,30.646,261.596,30.002,256,30.002z"/>
	<path style="fill:#FFFFFF;" d="M131.643,209.953l11.049-10.144c-3.921-4.271-8.458-7.891-13.482-10.758l-7.434,13.028
		C125.452,204.176,128.772,206.825,131.643,209.953z"/>
	<path style="fill:#FFFFFF;" d="M142.377,237.523c0,9.762-3.502,19.206-9.861,26.591l11.367,9.788
		c8.702-10.106,13.494-23.026,13.494-36.379c-0.001-10.039-2.7-19.883-7.805-28.468l-12.893,7.666
		C140.406,222.988,142.376,230.182,142.377,237.523z"/>
	<path style="fill:#FFFFFF;" d="M118.648,184.401c-5.494-1.762-11.229-2.655-17.048-2.655v15c4.262,0,8.456,0.652,12.467,1.939
		L118.648,184.401z"/>
	<rect x="115.66" y="472.12" style="fill:#FFFFFF;" width="65.859" height="15"/>
	<rect x="65.66" y="472.12" style="fill:#FFFFFF;" width="14.999" height="15"/>
	<rect x="90.66" y="472.12" style="fill:#FFFFFF;" width="15" height="15"/>
</g>
<g>
	<rect x="23.966" y="379.33" style="fill:#1D1D1F;" width="15" height="57.701"/>
	<path style="fill:#1D1D1F;" d="M477.781,326.274l-10.222,10.977L497,364.669V497H323.8V364.669l48.662-45.316h14.548v31.778h4.076
		l-10.519,110.992L395,487.121h30.802l14.433-24.999l-10.52-110.992h4.075v-31.778h14.548l8.243,7.676l10.223-10.977l-11.157-10.39
		c22.032-14.678,36.583-39.737,36.583-68.138c0-45.121-36.708-81.829-81.829-81.829s-81.829,36.708-81.829,81.829
		c0,28.401,14.551,53.46,36.582,68.138l-56.353,52.479V512H512V358.141L477.781,326.274z M424.849,458.771l-7.708,13.351h-13.48
		l-7.708-13.351l10.201-107.64h8.495L424.849,458.771z M418.79,336.13h-16.78v-16.778h16.78V336.13z M343.572,237.524
		c0-36.85,29.979-66.829,66.829-66.829s66.829,29.979,66.829,66.829c0,36.849-29.979,66.829-66.829,66.829
		S343.572,274.373,343.572,237.524z"/>
</g>
<g>
	<path style="fill:#FFFFFF;" d="M427.448,184.401c-5.494-1.762-11.229-2.655-17.047-2.655v15c4.261,0,8.456,0.652,12.467,1.939
		L427.448,184.401z"/>
	<path style="fill:#FFFFFF;" d="M451.177,237.523c0,9.762-3.502,19.205-9.861,26.591l11.368,9.787
		c8.702-10.107,13.494-23.026,13.494-36.379c-0.001-10.039-2.701-19.883-7.805-28.469l-12.893,7.667
		C449.206,222.988,451.177,230.182,451.177,237.523z"/>
	<path style="fill:#FFFFFF;" d="M440.444,209.952l11.049-10.144c-3.921-4.271-8.458-7.891-13.482-10.758l-7.434,13.028
		C434.253,204.175,437.573,206.825,440.444,209.952z"/>
</g>
<polygon style="fill:#1D1D1F;" points="450.45,487.071 484.781,487.121 484.781,472.17 450.45,472.121 "/>
<g>
	<rect x="335.5" y="395.69" style="fill:#FFFFFF;" width="15" height="15"/>
	<rect x="335.5" y="420.69" style="fill:#FFFFFF;" width="15" height="65.859"/>
	<rect x="335.5" y="370.69" style="fill:#FFFFFF;" width="15" height="14.999"/>
</g>
<g>
	<rect x="473.23" y="385.33" style="fill:#1D1D1F;" width="15" height="57.701"/>
	<path style="fill:#1D1D1F;" d="M121.5,117.25c6.68,0,12.96-2.6,17.68-7.32c4.72-4.72,7.32-11,7.32-17.68s-2.6-12.96-7.32-17.68
		s-11-7.32-17.68-7.32s-12.96,2.6-17.68,7.32s-7.32,11-7.32,17.68s2.6,12.96,7.32,17.68C108.54,114.65,114.821,117.25,121.5,117.25z
		 M121.5,82.25c5.5,0.01,9.99,4.5,10,10c-0.01,5.5-4.5,9.99-10,10c-5.5-0.01-9.99-4.5-10-10C111.51,86.75,116,82.261,121.5,82.25z"
		/>
	<path style="fill:#1D1D1F;" d="M84.25,147.021c5.64,0,10.94-2.2,14.93-6.18c3.99-3.99,6.18-9.29,6.18-14.94
		c0-5.64-2.19-10.94-6.18-14.93s-9.29-6.18-14.93-6.19c-5.65,0.01-10.95,2.2-14.94,6.19c-3.98,3.99-6.18,9.29-6.18,14.93
		c0,5.65,2.2,10.95,6.18,14.94C73.301,144.821,78.61,147.021,84.25,147.021z M84.25,119.791c3.36,0,6.11,2.75,6.11,6.11
		c0,3.37-2.75,6.12-6.11,6.12c-3.37,0-6.11-2.75-6.12-6.12C78.14,122.541,80.88,119.791,84.25,119.791z"/>
	<path style="fill:#1D1D1F;" d="M390.5,117.25c6.68,0,12.96-2.6,17.68-7.32s7.32-11,7.32-17.68s-2.6-12.96-7.32-17.68
		s-11-7.32-17.68-7.32s-12.96,2.6-17.68,7.32s-7.32,11-7.32,17.68s2.6,12.96,7.32,17.68S383.821,117.25,390.5,117.25z M390.5,82.25
		c5.5,0.01,9.99,4.5,10,10c-0.01,5.5-4.5,9.99-10,10c-5.5-0.01-9.99-4.5-10-10C380.51,86.75,385,82.261,390.5,82.25z"/>
	<path style="fill:#1D1D1F;" d="M406.63,125.9c0.01,5.65,2.2,10.95,6.19,14.93c3.99,3.99,9.29,6.19,14.93,6.19s10.95-2.2,14.93-6.19
		c3.99-3.98,6.19-9.29,6.19-14.93c0-5.64-2.2-10.94-6.19-14.93c-3.98-3.98-9.29-6.18-14.93-6.18s-10.94,2.2-14.93,6.18
		C408.83,114.96,406.64,120.261,406.63,125.9z M427.75,119.781c3.37,0.01,6.11,2.76,6.12,6.12c-0.01,3.37-2.75,6.11-6.12,6.12
		c-3.37-0.01-6.11-2.75-6.12-6.12C421.64,122.541,424.38,119.791,427.75,119.781z"/>
	<path style="fill:#1D1D1F;" d="M136.978,454.641h44.039v-44.039h-44.039V454.641z M151.978,425.602h14.039v14.039h-14.039V425.602z
		"/>
	<path style="fill:#1D1D1F;" d="M128.188,410.602H84.15v44.039h44.039L128.188,410.602L128.188,410.602z M113.188,439.641H99.15
		v-14.039h14.039L113.188,439.641L113.188,439.641z"/>
	<polygon style="fill:#1D1D1F;" points="137.14,331.051 82.051,331 82.051,345.951 137.14,346 	"/>
</g>
<g>
</g>
<g>
</g>
<g>
</g>
<g>
</g>
<g>
</g>
<g>
</g>
<g>
</g>
<g>
</g>
<g>
</g>
<g>
</g>
<g>
</g>
<g>
</g>
<g>
</g>
<g>
</g>
<g>
</g>
</svg>
