<svg id="Layer_1" enable-background="new 0 0 513 513" height="512" viewBox="0 0 513 513" width="512" xmlns="http://www.w3.org/2000/svg"><path d="m96.5 97v96h-80c-8.84 0-16-7.16-16-16v-64c0-8.84 7.16-16 16-16z" fill="#ece2e2"/><path d="m96.5 225v160h-80c-8.84 0-16-7.16-16-16v-129c0-6.88 4.33-12.74 10.42-15z" fill="#ece2e2"/><path d="m352.5 353v80c0 8.84-7.16 16-16 16h-192c-8.84 0-16-7.16-16-16v-80z" fill="#efd66c"/><g fill="#ffe773"><path d="m144.5 449c-8.837 0-16-7.164-16-16v-64c0-8.836 7.163-16 16-16s16 7.164 16 16v64c0 8.836-7.163 16-16 16z"/><path d="m208.5 449c-8.837 0-16-7.164-16-16v-64c0-8.836 7.163-16 16-16s16 7.164 16 16v64c0 8.836-7.163 16-16 16z"/><path d="m272.5 449c-8.837 0-16-7.164-16-16v-64c0-8.836 7.163-16 16-16s16 7.164 16 16v64c0 8.836-7.163 16-16 16z"/><path d="m336.5 449c-8.837 0-16-7.164-16-16v-64c0-8.836 7.163-16 16-16s16 7.164 16 16v64c0 8.836-7.163 16-16 16z"/></g><path d="m512.5 169v144c0 4.24-1.69 8.31-4.69 11.31l-56 56c-3 3-7.07 4.69-11.31 4.69h-376v-288h376c4.24 0 8.31 1.69 11.31 4.69l56 56c3 3 4.69 7.07 4.69 11.31z" fill="#aaa"/><path d="m507.81 157.69-56-56c-3-3-7.07-4.69-11.31-4.69h-376v288h376c4.24 0 8.31-1.69 11.31-4.69l56-56c3-3 4.69-7.07 4.69-11.31v-144c0-4.24-1.69-8.31-4.69-11.31zm-27.31 148.68-46.63 46.63h-263.48l16.59-33.19 110.9-13.86c17.55 19.08 42.71 31.05 70.62 31.05 52.93 0 96-43.07 96-96s-43.07-96-96-96c-27.91 0-53.07 11.97-70.62 31.05l-110.9-13.86-16.59-33.19h263.48l46.63 46.63z" fill="#999"/><path d="m80.5 513c-8.837 0-16-7.164-16-16v-465h-48c-8.837 0-16-7.164-16-16s7.163-16 16-16h64c8.837 0 16 7.164 16 16v481c0 8.836-7.163 16-16 16z" fill="#bcbcbc"/><circle cx="368.5" cy="241" fill="#ffa4b8" r="96"/><circle cx="368.5" cy="241" fill="#ea8692" r="64"/><path d="m368.5 273c-17.645 0-32-14.355-32-32s14.355-32 32-32 32 14.355 32 32-14.355 32-32 32zm-.001-32.021.001.021c0-.014-.001-.02-.001-.021z" fill="#ffa4b8"/><path d="m144.5 289c-8.837 0-16-7.164-16-16v-64c0-8.836 7.163-16 16-16s16 7.164 16 16v64c0 8.836-7.163 16-16 16z" fill="#bcbcbc"/></svg>